<?xml version="1.0" encoding="utf-8"?>
<!-- Generator: Adobe Illustrator 23.1.0, SVG Export Plug-In . SVG Version: 6.00 Build 0)  -->
<svg version="1.1" id="Layer_1" xmlns="http://www.w3.org/2000/svg" xmlns:xlink="http://www.w3.org/1999/xlink" x="0px" y="0px"
	 viewBox="0 0 1000 593" style="enable-background:new 0 0 1000 593;" xml:space="preserve">
<style type="text/css">
	.st0{fill:url(#SVGID_1_);}
	.st1{fill:#FFFFFF;}
	.st2{fill:url(#SVGID_2_);}
	.st3{fill:url(#SVGID_3_);}
	.st4{fill:url(#SVGID_4_);}
	.st5{fill:none;stroke:url(#SVGID_5_);stroke-width:2.8346;stroke-miterlimit:10;}
	.st6{fill:none;stroke:url(#SVGID_6_);stroke-width:2.8346;stroke-miterlimit:10;}
	.st7{fill:url(#SVGID_7_);}
	.st8{fill:#0642C6;}
	.st9{fill:#F5DB86;}
	.st10{fill:#00D119;}
	.st11{fill:#CC0000;}
	.st12{fill:url(#SVGID_8_);}
	.st13{fill:#66C6F0;}
	.st14{fill:none;stroke:#FFFFFF;stroke-miterlimit:10;}
	.st15{fill:url(#SVGID_9_);}
	.st16{fill:url(#SVGID_10_);}
	.st17{fill:url(#SVGID_11_);}
	.st18{fill:url(#SVGID_12_);}
	.st19{fill:url(#SVGID_13_);}
	.st20{fill:url(#SVGID_14_);}
	.st21{fill:url(#SVGID_15_);}
	.st22{fill:url(#SVGID_16_);}
	.st23{fill:url(#SVGID_17_);}
	.st24{fill:url(#SVGID_18_);}
	.st25{fill:url(#SVGID_19_);}
	.st26{fill:url(#SVGID_20_);}
	.st27{fill:url(#SVGID_21_);}
	.st28{fill:none;stroke:#E0E0E0;stroke-width:2.8346;stroke-miterlimit:10;}
	.st29{fill:url(#SVGID_22_);}
	.st30{fill:none;stroke:url(#SVGID_23_);stroke-width:2.8346;stroke-miterlimit:10;}
	.st31{fill:none;stroke:url(#SVGID_24_);stroke-width:2.8346;stroke-miterlimit:10;}
	.st32{fill:url(#SVGID_25_);}
	.st33{fill:none;stroke:url(#SVGID_26_);stroke-width:2.8346;stroke-miterlimit:10;}
	.st34{fill:none;stroke:url(#SVGID_27_);stroke-width:2.8346;stroke-miterlimit:10;}
	.st35{fill:none;stroke:url(#SVGID_28_);stroke-width:2.8346;stroke-miterlimit:10;}
	.st36{fill:none;stroke:url(#SVGID_29_);stroke-width:2.8346;stroke-miterlimit:10;}
	.st37{fill:url(#SVGID_30_);}
	.st38{fill:none;stroke:#FFFFFF;stroke-width:5.6693;stroke-miterlimit:10;}
	.st39{fill:none;stroke:#7F7F7F;stroke-width:2.8346;stroke-miterlimit:10;}
	.st40{fill:url(#SVGID_31_);}
	.st41{fill:none;stroke:#000000;stroke-miterlimit:10;}
	.st42{fill:url(#SVGID_32_);}
	.st43{opacity:0.28;fill:#FFFFFF;}
	.st44{opacity:0.71;fill:#FFFFFF;}
	.st45{fill:#FFFFFF;stroke:#E0E0E0;stroke-width:2.8346;stroke-miterlimit:10;}
	.st46{fill:url(#SVGID_33_);}
	.st47{fill:url(#SVGID_34_);}
	.st48{fill:url(#SVGID_35_);}
	.st49{fill:url(#SVGID_36_);}
	.st50{fill:url(#SVGID_37_);}
	.st51{fill:url(#SVGID_38_);}
	.st52{fill:url(#SVGID_39_);}
	.st53{fill:url(#SVGID_40_);}
	.st54{fill:url(#SVGID_41_);}
	.st55{fill:url(#SVGID_42_);}
	.st56{fill:url(#SVGID_43_);}
	.st57{fill:url(#SVGID_44_);}
	.st58{fill:url(#SVGID_45_);}
	.st59{fill:url(#SVGID_46_);}
	.st60{fill:url(#SVGID_47_);}
	.st61{fill:url(#SVGID_48_);}
	.st62{fill:url(#SVGID_49_);}
	.st63{fill:url(#SVGID_50_);}
	.st64{fill:url(#SVGID_51_);}
	.st65{fill:url(#SVGID_52_);}
	.st66{fill:url(#SVGID_53_);}
	.st67{fill:url(#SVGID_54_);}
	.st68{fill:url(#SVGID_55_);}
	.st69{fill:url(#SVGID_56_);}
	.st70{fill:url(#SVGID_57_);}
	.st71{fill:url(#SVGID_58_);}
	.st72{fill:url(#SVGID_59_);}
	.st73{fill:url(#SVGID_60_);}
	.st74{fill:url(#SVGID_61_);}
	.st75{fill:url(#SVGID_62_);}
	.st76{fill:url(#SVGID_63_);}
	.st77{fill:url(#SVGID_64_);}
	.st78{fill:url(#SVGID_65_);}
</style>
<g>
	<linearGradient id="SVGID_1_" gradientUnits="userSpaceOnUse" x1="257.9489" y1="565.939" x2="257.9489" y2="27.061">
		<stop  offset="3.195558e-07" style="stop-color:#FA4652"/>
		<stop  offset="1" style="stop-color:#FFCE4E"/>
	</linearGradient>
	<path class="st0" d="M437.3,150.9c-21.3-39.4-51-69.8-89-91.4c-38-21.6-80.8-32.4-128.4-32.4H46.2v538.9h177.3
		c46.6-0.2,88.9-11.4,126.8-33.5c37.9-22.1,67.2-52.7,88.1-91.8c20.8-39.1,31.3-83.3,31.3-132.7v-24.8
		C469.4,234.3,458.6,190.2,437.3,150.9z"/>
	<g>
		<path class="st1" d="M269.4,305.4c-0.3-4.2,0-8.4-1.2-12.5c-3.3-11.3-10.2-19.5-21.3-23.5c-12.5-4.5-26.6-1.1-36.3,8.4
			c-10.7,10.5-12.9,28-6.1,40.9c7.5,14.2,19.4,21,35.4,20.5c18.2-0.6,33.6-13.4,37.7-31.7c2.9-13.3,0-25.5-8.2-36.5
			c-6.7-9-15.7-14.7-26.6-17.1c-6.6-1.5-13.2-1.6-19.9-0.3c-10.5,2.1-19.6,6.9-27.2,14.5c-7.5,7.7-12.1,16.8-14,27.4
			c-1.5,8.4-1.2,16.8,0.9,25c1.6,6.2,4.3,11.9,7.8,17.2c7.1,10.6,16.6,18.3,28.5,22.7c15.1,5.6,30.3,5.5,45.4-0.1
			c11.4-4.1,20.9-10.9,28.7-20c4.5-5.3,8-11.2,10.7-17.6c0.3-0.8,0.6-1.7,1.8-2.7c-1.3,4.5-2.8,8.4-4.8,12c-1.4,2.5-2.7,5.1-4.5,7.4
			c-1.1,1.4-0.8,2.1,1,2.6c10.7,3.1,21,7,30.7,12.6c5.6,3.2,10.6,7.2,14.5,12.4c0.6,0.8,1.6,1.7,1,2.6c-0.5,0.8-1.7,0.3-2.6,0.2
			c-7.3-0.9-13.9-3.8-20.1-7.5c-8.9-5.4-16.9-12-24.3-19.2c-1.3-1.2-1.9-1.1-2.8,0.2c-3.7,4.8-8.2,8.7-13,12.4
			c-14.2,11.1-30.5,15.5-48.1,14.2c-22.8-1.8-40.5-12.6-52.5-32.2c-9.1-14.9-11.6-31.2-8.1-48.2c3.9-18.7,14.4-32.6,31-42
			c6.3-3.6,13.1-5.8,20.2-7c9.8-1.5,19.5-0.9,29,2.1c15,4.8,26.2,14.2,33.6,28.1c7.2,13.4,8.9,27.5,4.9,42
			c-5.9,21.6-20.3,34.8-42.2,39.3c-12.9,2.6-25.3,0.4-36.5-6.5c-11.8-7.3-19.2-18-21.9-31.7c-2.4-12.3-0.6-23.8,6.2-34.4
			c4.6-7.2,10.9-12.4,18.6-15.9c8-3.6,16.4-4.6,24.9-3c16.3,3,28.9,16,30.5,32.3C270.9,297.2,270.6,301.3,269.4,305.4z"/>
		<path class="st1" d="M175.4,266.3c-2.5,0-4.4-0.9-6.3-1.6c-7.8-2.5-15.5-5.4-22.7-9.3c-3.9-2.1-7.5-4.6-10.9-7.3
			c-2.5-2-4.8-4.3-7.1-6.5c-1.1-1-2.2-2.5-1.7-3.5c0.6-1,2.5-0.5,3.8-0.1c1.7,0.6,3.4,0.7,5,2.2c1.2,1.2,3.6,0.9,5.4,1.3
			c2.4,0.7,4.6,1.8,6.8,2.9c2.9,1.4,5.7,3.3,8.3,5.2c3.9,3,8,5.7,11.6,9.1C170,261.3,172.8,263.4,175.4,266.3z"/>
		<path class="st1" d="M202.2,241c-1.7-0.1-2.2-1.4-3-2.3c-7.5-8.1-14.5-16.6-19.7-26.3c-3-5.5-5.1-11.4-5.8-17.7
			c-0.1-0.6-0.3-1.4,0.3-1.8c0.7-0.5,1.2,0.3,1.7,0.6c6.9,4.6,11.4,11.3,15.3,18.4c3.9,7.2,6.7,14.8,9.3,22.5
			C201,236.4,201.5,238.7,202.2,241z"/>
		<path class="st1" d="M197.2,364.3c-0.9,5.5-2.7,10.6-4.7,15.7c-3.6,9.3-7.8,18.3-14.4,25.9c-2.1,2.4-4.5,4.7-7.3,6.4
			c-0.4,0.3-0.8,0.8-1.3,0.5c-0.6-0.3-0.2-0.9-0.2-1.4c0.5-8,3.7-15.2,7.8-21.9c5.4-9,12.2-16.9,19.4-24.5
			C196.7,364.7,197,364.5,197.2,364.3z"/>
		<path class="st1" d="M298.2,270.7c0.1-1.2,1.1-1.6,1.8-2.3c5.8-5.2,11.7-10.4,18.2-14.8c7.5-5.1,15.4-9.5,24.6-10.8
			c1.2-0.2,2.8-0.8,3.4,0.2c0.6,1.1-0.8,2.1-1.5,3c-4.6,5.7-10.4,9.9-16.7,13.4c-8.9,4.9-18.5,8.2-28.1,11.2
			C299.4,270.7,298.8,270.9,298.2,270.7z"/>
		<path class="st1" d="M172.6,337.6c-3.4,3-6.5,5.8-9.6,8.5c-3.9,3.3-8.1,6.1-12.3,9.1c-5.8,4.1-11.9,7.1-18.6,9.2
			c-2,0.6-4,1.1-6.1,1.1c-0.7,0-1.6,0.4-1.9-0.4c-0.3-0.7,0.4-1.2,0.8-1.7c4.3-6,10-10.3,16.3-13.9c9-5.1,18.7-8.6,28.5-11.7
			C170.4,337.5,171.2,337.1,172.6,337.6z"/>
		<path class="st1" d="M268.6,366.6c2.5,2,4.3,4.3,6.3,6.6c6,6.9,11.7,14,16,22.1c2.9,5.4,5.1,11.1,5.9,17.2c0,0.4,0.1,0.7,0.1,1.1
			c0,0.5,0.3,1.3-0.3,1.6c-0.6,0.3-1-0.3-1.5-0.6c-3.6-2.3-6.5-5.4-9.1-8.8c-5.5-7.2-9.3-15.3-12.5-23.7c-1.7-4.4-3.2-8.8-4.5-13.3
			C268.7,368.2,268.3,367.6,268.6,366.6z"/>
		<path class="st1" d="M305.7,306.4c7.6-1.5,14.6-3.6,21.9-3.9c3.6-0.2,7.2-0.6,10.9-0.9c3.4-0.3,6.8,0.5,10.3,0.6
			c2.7,0.1,5.3,1.1,7.9,1.6c1.4,0.2,2.6,1,2.8,2.5c0.2,1.6-1,2.6-2.3,3c-5.6,1.6-11.3,2.5-17.2,2.4c-11.3-0.2-22.3-1.8-33.2-4.7
			C306.5,306.9,306.4,306.8,305.7,306.4z"/>
		<path class="st1" d="M163.9,301.7c-2.2,0.5-4.4,1.1-6.6,1.5c-8.2,1.7-16.5,3.1-25,3.2c-7,0.1-13.9-0.4-20.5-3.1
			c-0.9-0.4-1.8-0.8-2.7-1.3c-1.2-0.6-0.9-1,0.1-1.6c3.5-1.9,7.4-2.9,11.3-3.5c10-1.5,19.9-0.7,29.8,1.1c4.6,0.8,9.2,1.7,13.7,2.8
			C163.9,301.3,163.9,301.5,163.9,301.7z"/>
		<path class="st1" d="M238,176.7c1.5,2.3,2.4,4.8,3.1,7.3c2.5,9.1,2.2,18.4,1.1,27.6c-0.7,6.4-2,12.6-3.4,18.9
			c-0.2,0.8-0.4,1.5-1.1,2.2c-1.1-2.7-1.6-5.6-2.1-8.4c-1.8-9.4-3.2-18.9-2.8-28.5c0.2-5.8,1.3-11.4,3.5-16.8
			C236.7,178.3,237,177.4,238,176.7z"/>
		<path class="st1" d="M232.6,375.2c1.6,4.1,2.3,8.3,3.1,12.6c1.3,7.5,2.2,15.1,2,22.8c-0.2,6.1-0.9,12-3.3,17.7
			c-0.2,0.5-0.4,0.9-0.6,1.4c-0.3,0.5-0.5,1.2-1.1,1.2c-0.7,0.1-0.8-0.7-1-1.2c-2-4.1-3-8.4-3.5-12.8c-1.2-10-0.1-19.8,1.7-29.6
			C230.6,383.2,231.2,379.2,232.6,375.2z"/>
		<path class="st1" d="M273.2,243.7c-0.4-2.3,0.8-4,1.4-5.8c3.7-11.6,8.2-22.9,15.5-32.8c2.5-3.4,5.4-6.3,8.8-8.9
			c0.6-0.4,1.3-1,1.9-0.7c0.8,0.4,0.4,1.3,0.4,1.9c-0.4,5.7-2.4,10.9-4.9,16c-5.7,11.2-13.7,20.7-22.3,29.7
			C273.8,243.3,273.6,243.4,273.2,243.7z"/>
	</g>
	<g>
		<linearGradient id="SVGID_2_" gradientUnits="userSpaceOnUse" x1="739.2757" y1="565.939" x2="739.2757" y2="27.061">
			<stop  offset="3.195558e-07" style="stop-color:#FA4652"/>
			<stop  offset="1" style="stop-color:#FFCE4E"/>
		</linearGradient>
		<path class="st2" d="M752.7,440.8c-0.6-25.2-2.9-50.3-6.5-75.2c-4.9-34.4-12.6-68.2-23.4-101.2c-2.6-7.9-5.5-15.8-8.9-23.7
			c-0.6,1.4-1.3,2.7-1.8,4.1c-4.1,11-5.7,22.5-7.2,34.1c-0.3,2.1-0.5,4.3-0.6,6.4c-0.1,1.8-0.8,2.5-2.6,1.8c-1.3-0.5-2.6-1.4-4.4-1
			c1.1,2.5,2.8,4.4,4.9,5.7c1.4,0.8,1.7,1.8,1.5,3.2c-1.5,11.3-3,22.6-4.4,33.9c-0.3,2.4-1.2,2.5-3,1.5c-1.3-0.7-2.7-1.2-4-1.8
			c-0.5-0.2-1.1-0.8-1.6-0.1c-0.4,0.6,0.1,1.2,0.4,1.7c1.3,1.8,2.7,3.6,4.6,4.9c1.6,1.2,1.9,2.6,1.4,4.5
			c-3.6,15.4-7.2,30.8-10.7,46.1c-0.2,1-0.1,2.4-1.2,2.7c-1,0.3-1.5-1-2.1-1.6c-10.3-11.4-16.6-24.9-19.8-39.9
			c-5.1-24.2-1-47.4,7.9-70c5.4-13.7,12.5-26.5,20.6-38.8c0.4-0.7,0.9-1.4,1.2-2.2c-7.4,7.5-14.5,15.2-21,23.5
			c-4.8,6-9.5,12.1-13.4,18.8c-0.3,0.5-0.5,1.2-1.2,1.3c-0.9,0-1-0.8-1.3-1.4c-1.1-2.7-2.3-5.3-3.5-8.2c-1.3,1.3-1,2.5-0.8,3.6
			c0.4,2.9,1.2,5.7,2.2,8.5c0.5,1.4,0.4,2.6-0.4,3.9c-6.7,10.6-13.3,21.2-19.9,31.8c-1,1.6-1.7,1.7-2.7,0.1
			c-1.7-2.8-3.5-5.5-5.5-8.5c-1.2,4.8-0.7,9.1,1.2,13.2c1.1,2.3,1,4.2,0,6.4c-5.6,12.9-11.1,25.9-16.6,38.8
			c-0.3,0.7-0.4,1.7-1.2,1.8c-0.9,0-1.1-1-1.5-1.6c-11.1-21.1-15.7-43.2-10.3-66.8c3.2-13.8,9.9-25.9,19.2-36.6
			c14.8-17.2,33.7-28.6,54-38c5.2-2.4,10.6-4.6,15.9-7c-4.9,0-9.6,0.9-14.4,1.6c-9.1,1.4-18,3.4-26.6,6.4c-2,0.7-3,0.3-2.9-1.9
			c0-1-0.1-2-0.2-3.4c-2.4,1.8-3.7,3.9-4.8,6.1c-0.8,1.6-1.9,2.5-3.6,3.1c-8.9,2.8-17.8,5.7-26.6,8.5c-2.9,0.9-3.1,0.8-3.8-2.2
			c-0.4-1.6-0.8-3.2-1.2-4.8c0-0.2-0.2-0.3-0.6-0.9c-1.5,2.6-3,4.9-4.1,7.4c-0.9,1.8-2.1,3-3.9,3.9c-14.6,7.4-29.2,15-43.8,22.5
			c-0.5,0.2-0.9,0.4-1.4,0.7c-1.5,0.8-2,0.3-2-1.3c0-4.9,0.7-9.6,2-14.3c5.5-19.5,18.2-33.1,36-42c16-8,33-12.6,50.8-14.3
			c16.6-1.5,32.7,0.6,48.5,6.4c-1.1-0.7-2.3-1.5-3.4-2.2c-1.3-0.8-2.5-1.5-3.8-2.2c-10.5-5.5-21.6-9.6-33.1-12.4
			c-0.5-0.1-1-0.2-1.5-0.4c-1.7-0.5-1.6-1.2-0.5-2.3c0.8-0.9,2.9-1.4,2.3-2.6c-0.7-1.3-2.7-0.5-3.8,0c-7.3,3.5-14.6,1.8-22,0.4
			c-6.5-1.3-13.1-2.4-19.6-3.5c-2-0.3-2.3-0.8-0.8-2.3c1.1-1.1,2-2.3,3.2-3.8c-2.3-0.3-4.3,0.4-5.7,1.5c-4.6,3.8-9.6,3.1-14.9,2.3
			c-9.9-1.5-19.9-2-29.9-2.1c-0.6,0-1.2,0-1.8,0c-0.6,0-1.3,0-1.6-0.6c-0.4-0.8,0.4-1.2,0.9-1.7c5.6-5.2,11.7-9.7,18.2-13.6
			c12.4-7.3,25.7-11.9,40-13.1c13.9-1.2,27.4,1,40.4,6.1c15.2,5.9,28.3,14.9,40.4,25.7c3.5,3.1,6.8,6.3,10.7,9.9
			c-0.5-4.9-0.3-9.3-0.1-13.6c1.1-19.7,4.8-38.7,14.7-56.1c12.2-21.5,30.7-34,54.8-38.6c8.6-1.6,17.2-1.6,25.8-1.5
			c0.6,0,1.3-0.2,1.6,0.4c0.3,0.7-0.4,1.1-0.7,1.5c-8.7,9.5-17.3,19-26,28.5c-0.8,0.9-1.7,1.4-2.9,1.4c-2.9,0.2-5.5,1.4-8.6,3.1
			c2.4,0.6,4.3,1,6.1,1.4c1.5,0.4,1.8,0.9,0.7,2.3c-9.2,11.5-18.4,23.1-27.6,34.7c-0.6,0.8-1.3,1.4-2.3,1.5
			c-2.4,0.4-4.3,1.7-6.6,2.9c1.4,0.9,2.9,1.2,4.3,1.5c2.6,0.7,2.8,0.9,1.4,3.2c-5.7,9.7-10,20.1-12.1,31.2c-0.1,0.5-0.1,1-0.3,2.1
			c1.9-2.1,3.5-3.9,5-5.7c9.7-11,20.9-20.1,33.8-27c25.7-13.7,51.9-15,78.8-3.8c16.2,6.8,30.2,16.8,43,28.8c0.4,0.4,1.2,0.7,1,1.4
			c-0.2,0.9-1.1,0.7-1.7,0.7c-15.1,1.6-30.2,3.1-45.3,4.7c-0.7,0.1-1.4,0.2-2,0.3c-3,0.3-5.8,1.5-7.8-2.7c-1.5-3.2-5.4-4.5-9.1-5.9
			c0.4,2.7,1.5,4.6,2.5,6.6c0.8,1.7,0.4,2.5-1.5,2.8c-11.8,1.8-23.5,3.8-35.3,5.7c-1.5,0.3-2.7-0.1-4-1.1c-4-3.4-8.8-3.4-14.3-2.4
			c2.8,1.7,5,3.1,7.3,4.5c0.7,0.5,2.1,0.7,1.9,1.8c-0.2,0.8-1.4,0.7-2.3,0.9c-9,1.5-17.8,3.5-26.2,6.9c-3.3,1.3-6.4,3-9.6,5.6
			c6-1.1,11.3-2.2,16.8-2.6c23.1-1.8,45.2,1.6,66.3,11.6c17.3,8.3,31.6,20.4,43.6,35.2c7.4,9.1,13.5,19,18.8,29.4
			c18.8-9.2,33.5-22,44.1-38.2c12.8-19.7,19.2-43.5,19.2-71.4c0-48.4-18.1-85.2-54.2-110.7c-36.1-25.4-88.9-38.1-158.2-38.1H536.3
			v538.9h209.2c2.8-17.8,4.7-35.7,6-53.7C753.2,488.5,753.3,464.7,752.7,440.8z"/>
		<linearGradient id="SVGID_3_" gradientUnits="userSpaceOnUse" x1="844.126" y1="565.939" x2="844.126" y2="27.061">
			<stop  offset="3.195558e-07" style="stop-color:#FA4652"/>
			<stop  offset="1" style="stop-color:#FFCE4E"/>
		</linearGradient>
		<path class="st3" d="M931.2,332.4c-15.1-20.2-36.6-34.1-64.8-41.5c0.3-0.1,0.5-0.2,0.8-0.3c-11.3-3.5-22.6-6.9-34-10.3
			c-2.1-0.6-3.1-1.6-3.7-3.7c-1.2-4.1-2.7-8-4.8-11.7c-0.4-0.6-0.6-1.4-1.3-1.8c-0.8,0.4-0.7,1.1-0.7,1.6c-0.2,3.3-0.6,6.5-0.6,9.8
			c0,2.2-0.7,2.5-2.6,1.7c-6.6-2.8-13.3-5.4-19.9-8.1c-4.1-1.7-8.1-3.4-12.2-5c-2-0.8-2.9-1.8-3-4.1c-0.1-3.4-0.5-6.9-1.8-10.1
			c-0.3-0.8-0.4-2-1.4-1.9c-0.9,0-0.8,1.2-1,1.9c-0.7,2-1.4,3.9-1.9,5.9c-0.5,2-1.3,2.1-2.9,0.9c-6-4.5-12.4-8.4-19.1-11.8
			c-6.2-3.1-12.6-5.7-19.2-7.6c-0.6-0.2-1.3-0.2-2.4-0.4c0.9,2,1.7,3.6,2.5,5.2c10,20.6,19,41.6,27.2,63
			c12.5,32.8,22.9,66.2,31.1,100.3c6,25,10.8,50.3,14.2,75.8c2.3,16.9,4,33.9,4.9,51c0.6,10,1,19.9,1.2,29.9
			c36.4-6.1,65.8-18,88-35.6c33.4-26.5,50.1-66.2,50.1-119C953.8,377.3,946.2,352.6,931.2,332.4z"/>
		<path class="st1" d="M809.4,480.1c-3.4-25.5-8.2-50.8-14.2-75.8c-8.2-34.1-18.6-67.6-31.1-100.3c-8.2-21.4-17.1-42.4-27.2-63
			c-0.8-1.6-1.5-3.2-2.5-5.2c1.1,0.2,1.8,0.3,2.4,0.4c6.7,1.9,13.1,4.5,19.2,7.6c6.7,3.4,13.1,7.4,19.1,11.8
			c1.6,1.2,2.4,1.1,2.9-0.9c0.5-2,1.3-3.9,1.9-5.9c0.2-0.7,0.2-1.9,1-1.9c1,0,1.1,1.2,1.4,1.9c1.3,3.3,1.7,6.7,1.8,10.1
			c0.1,2.3,1,3.4,3,4.1c4.1,1.5,8.2,3.3,12.2,5c6.6,2.7,13.3,5.4,19.9,8.1c1.9,0.8,2.6,0.5,2.6-1.7c0-3.3,0.4-6.5,0.6-9.8
			c0-0.6,0-1.2,0.7-1.6c0.7,0.4,0.9,1.1,1.3,1.8c2.2,3.7,3.6,7.7,4.8,11.7c0.6,2.1,1.7,3.1,3.7,3.7c11.3,3.4,22.7,6.9,34,10.3
			c4.1-1.6,8-3.3,11.8-5.1c-5.3-10.4-11.4-20.3-18.8-29.4c-12-14.7-26.3-26.9-43.6-35.2c-21-10.1-43.2-13.4-66.3-11.6
			c-5.5,0.4-10.8,1.5-16.8,2.6c3.2-2.7,6.3-4.3,9.6-5.6c8.5-3.4,17.3-5.4,26.2-6.9c0.8-0.1,2.1,0,2.3-0.9c0.3-1.1-1.1-1.3-1.9-1.8
			c-2.2-1.4-4.5-2.8-7.3-4.5c5.6-1,10.3-1,14.3,2.4c1.3,1.1,2.4,1.4,4,1.1c11.7-1.9,23.5-3.8,35.3-5.7c1.9-0.3,2.3-1,1.5-2.8
			c-0.9-2-2.1-3.9-2.5-6.6c3.7,1.4,7.6,2.7,9.1,5.9c2,4.2,4.8,3,7.8,2.7c0.7-0.1,1.4-0.2,2-0.3c15.1-1.6,30.2-3.1,45.3-4.7
			c0.7-0.1,1.5,0.1,1.7-0.7c0.1-0.7-0.6-1-1-1.4c-12.8-11.9-26.8-22-43-28.8c-26.9-11.2-53.2-9.9-78.8,3.8
			c-12.9,6.9-24.1,16-33.8,27c-1.6,1.8-3.1,3.5-5,5.7c0.1-1,0.2-1.6,0.3-2.1c2.1-11.1,6.4-21.5,12.1-31.2c1.3-2.3,1.2-2.5-1.4-3.2
			c-1.4-0.4-2.9-0.6-4.3-1.5c2.2-1.2,4.2-2.5,6.6-2.9c1-0.2,1.7-0.8,2.3-1.5c9.2-11.6,18.3-23.1,27.6-34.7c1.1-1.4,0.7-1.9-0.7-2.3
			c-1.9-0.5-3.7-0.9-6.1-1.4c3.1-1.7,5.7-2.9,8.6-3.1c1.2-0.1,2.1-0.6,2.9-1.4c8.7-9.5,17.3-19,26-28.5c0.4-0.4,1.1-0.8,0.7-1.5
			c-0.3-0.7-1.1-0.4-1.6-0.4c-8.6-0.1-17.2-0.1-25.8,1.5c-24.2,4.5-42.7,17-54.8,38.6c-9.8,17.4-13.5,36.4-14.7,56.1
			c-0.3,4.3-0.4,8.7,0.1,13.6c-3.9-3.6-7.3-6.8-10.7-9.9c-12.1-10.8-25.2-19.8-40.4-25.7c-13-5.1-26.5-7.2-40.4-6.1
			c-14.3,1.2-27.6,5.8-40,13.1c-6.6,3.9-12.7,8.4-18.2,13.6c-0.5,0.4-1.3,0.8-0.9,1.7c0.3,0.6,1,0.5,1.6,0.6c0.6,0.1,1.2,0,1.8,0
			c10,0.1,20,0.6,29.9,2.1c5.3,0.8,10.3,1.5,14.9-2.3c1.4-1.1,3.3-1.8,5.7-1.5c-1.2,1.4-2.1,2.7-3.2,3.8c-1.5,1.5-1.1,2,0.8,2.3
			c6.6,1.1,13.1,2.2,19.6,3.5c7.4,1.4,14.7,3.1,22-0.4c1.1-0.5,3.1-1.3,3.8,0c0.7,1.3-1.4,1.8-2.3,2.6c-1.1,1.1-1.2,1.9,0.5,2.3
			c0.5,0.1,1,0.2,1.5,0.4c11.6,2.7,22.6,6.8,33.1,12.4c1.3,0.7,2.6,1.4,3.8,2.2c1.2,0.7,2.3,1.4,3.4,2.2
			c-15.8-5.8-31.9-7.9-48.5-6.4c-17.8,1.6-34.8,6.3-50.8,14.3c-17.8,8.9-30.4,22.5-36,42c-1.3,4.7-2,9.4-2,14.3c0,1.6,0.6,2.1,2,1.3
			c0.5-0.3,0.9-0.5,1.4-0.7c14.6-7.5,29.2-15,43.8-22.5c1.8-0.9,3-2,3.9-3.9c1.2-2.5,2.7-4.8,4.1-7.4c0.4,0.6,0.6,0.7,0.6,0.9
			c0.4,1.6,0.8,3.2,1.2,4.8c0.7,3.1,0.8,3.2,3.8,2.2c8.9-2.8,17.7-5.7,26.6-8.5c1.7-0.5,2.8-1.5,3.6-3.1c1.1-2.2,2.4-4.3,4.8-6.1
			c0.1,1.4,0.2,2.4,0.2,3.4c0,2.2,0.9,2.6,2.9,1.9c8.7-3,17.6-5,26.6-6.4c4.8-0.7,9.6-1.6,14.4-1.6c-5.3,2.4-10.6,4.6-15.9,7
			c-20.3,9.4-39.2,20.8-54,38c-9.2,10.7-16,22.8-19.2,36.6c-5.4,23.6-0.8,45.7,10.3,66.8c0.3,0.7,0.6,1.7,1.5,1.6
			c0.9,0,1-1.1,1.2-1.8c5.5-12.9,11-25.9,16.6-38.8c1-2.2,1.1-4.1,0-6.4c-1.9-4-2.5-8.3-1.2-13.2c2,3,3.8,5.7,5.5,8.5
			c1,1.7,1.7,1.5,2.7-0.1c6.6-10.6,13.2-21.2,19.9-31.8c0.8-1.3,0.9-2.4,0.4-3.9c-1-2.8-1.8-5.6-2.2-8.5c-0.2-1.1-0.5-2.4,0.8-3.6
			c1.2,2.9,2.3,5.6,3.5,8.2c0.3,0.6,0.4,1.5,1.3,1.4c0.7,0,0.9-0.7,1.2-1.3c3.9-6.6,8.6-12.7,13.4-18.8c6.5-8.3,13.6-16,21-23.5
			c-0.3,0.8-0.8,1.5-1.2,2.2c-8,12.3-15.2,25.1-20.6,38.8c-8.9,22.6-12.9,45.8-7.9,70c3.2,15,9.5,28.4,19.8,39.9
			c0.6,0.7,1.1,1.9,2.1,1.6c1.1-0.3,1-1.7,1.2-2.7c3.6-15.4,7.1-30.8,10.7-46.1c0.5-1.9,0.2-3.3-1.4-4.5c-1.8-1.3-3.3-3-4.6-4.9
			c-0.3-0.5-0.8-1.1-0.4-1.7c0.5-0.7,1.1-0.1,1.6,0.1c1.4,0.6,2.7,1.1,4,1.8c1.8,1,2.7,0.9,3-1.5c1.4-11.3,2.9-22.6,4.4-33.9
			c0.2-1.4-0.1-2.4-1.5-3.2c-2.1-1.3-3.8-3.1-4.9-5.7c1.8-0.3,3.1,0.6,4.4,1c1.9,0.7,2.5,0.1,2.6-1.8c0.1-2.2,0.3-4.3,0.6-6.4
			c1.4-11.6,3.1-23.1,7.2-34.1c0.5-1.4,1.2-2.8,1.8-4.1c3.4,7.9,6.3,15.7,8.9,23.7c10.9,33,18.5,66.8,23.4,101.2
			c3.6,25,5.8,50,6.5,75.2c0.6,23.8,0.4,47.6-1.3,71.4c-1.3,18-3.1,35.9-6,53.7h9.6c22-0.2,42.2-1.8,60.6-4.9
			c-0.2-10-0.7-19.9-1.2-29.9C813.4,514,811.7,497,809.4,480.1z"/>
	</g>
</g>
</svg>
